<?xml version="1.0" encoding="utf-8"?>
<!-- Generator: Adobe Illustrator 16.0.4, SVG Export Plug-In . SVG Version: 6.00 Build 0)  -->
<!DOCTYPE svg PUBLIC "-//W3C//DTD SVG 1.0//EN" "http://www.w3.org/TR/2001/REC-SVG-20010904/DTD/svg10.dtd">
<svg version="1.0" id="Layer_1" xmlns="http://www.w3.org/2000/svg" xmlns:xlink="http://www.w3.org/1999/xlink" x="0px" y="0px"
	 width="56.693px" height="56.693px" viewBox="0 0 56.693 56.693" enable-background="new 0 0 56.693 56.693" xml:space="preserve">
<g>
	<g>
		<g>
			<polygon fill="#FFFFFF" points="14.819,9.823 21.905,9.824 28.992,26.53 36.079,9.823 43.166,9.823 32.536,34.882 25.449,34.882 
							"/>
			<path fill="#1E1E1C" d="M35.548,15.959l0.3-0.706l1.034,0.438l-0.661-1.315l0.355-0.838l0.686,1.43l1.876-0.381l-0.36,0.849
				l-1.219,0.238l0.179,0.381l0.658,0.28l-0.299,0.706L35.548,15.959z"/>
			<path fill="#1E1E1C" d="M30.79,27.169l0.301-0.705l1.929,0.818l0.523-1.234l0.619,0.263l-0.823,1.94L30.79,27.169z"/>
			<path fill="#1E1E1C" d="M31.728,24.96l0.87-2.049l0.601,0.254l-0.573,1.352l0.386,0.163l0.519-1.223l0.557,0.236l-0.519,1.224
				l0.404,0.171l0.581-1.368l0.6,0.254l-0.877,2.068L31.728,24.96z"/>
			<path fill="#1E1E1C" d="M32.788,22.465l0.511-1.204c0.166-0.391,0.382-0.616,0.629-0.713c0.209-0.088,0.438-0.081,0.689,0.025
				l0.007,0.004c0.39,0.165,0.561,0.482,0.561,0.855l1.146-0.23l-0.346,0.814l-0.989,0.187l-0.003,0.007l-0.128,0.303l0.771,0.328
				l-0.3,0.705L32.788,22.465z M34.507,21.812c0.102-0.24,0.045-0.428-0.142-0.507l-0.007-0.003c-0.2-0.085-0.364,0.018-0.464,0.254
				l-0.196,0.463l0.611,0.26L34.507,21.812z"/>
			<path fill="#1E1E1C" d="M33.917,19.802l0.301-0.709l2.549,1.08l-0.302,0.711L33.917,19.802z"/>
			<path fill="#1E1E1C" d="M35.666,19.247l-0.008-0.003c-0.742-0.315-1.082-1.134-0.755-1.905c0.222-0.521,0.581-0.764,0.99-0.856
				l0.187,0.706c-0.244,0.068-0.432,0.187-0.535,0.431c-0.151,0.356,0.044,0.735,0.415,0.894l0.007,0.004
				c0.383,0.162,0.788,0.037,0.939-0.32c0.112-0.266,0.055-0.475-0.065-0.706l0.604-0.37c0.229,0.381,0.335,0.809,0.096,1.372
				C37.232,19.22,36.426,19.569,35.666,19.247z"/>
			<polygon fill="#1E1E1C" points="30.682,27.386 30.346,28.177 31.542,29.411 29.823,29.411 29.487,30.202 32.492,30.204 
				32.631,29.874 32.771,29.546 			"/>
			<rect x="5.966" y="4.287" fill="none" width="45.757" height="48.519"/>
		</g>
		<g>
			<path fill="#FFFFFF" d="M12.084,37.651h2.186c0.536,0,0.913,0.133,1.163,0.383c0.17,0.172,0.274,0.398,0.274,0.689v0.012
				c0,0.494-0.28,0.787-0.658,0.949c0.518,0.172,0.847,0.465,0.847,1.043v0.012c0,0.732-0.597,1.176-1.614,1.176h-2.198V37.651z
				 M13.978,39.351c0.36,0,0.561-0.121,0.561-0.371v-0.014c0-0.23-0.183-0.363-0.536-0.363h-0.768v0.748H13.978z M14.148,40.964
				c0.36,0,0.566-0.141,0.566-0.389v-0.012c0-0.23-0.182-0.385-0.579-0.385h-0.901v0.785H14.148z"/>
			<path fill="#FFFFFF" d="M16.749,40.046v-2.395h1.199v2.369c0,0.615,0.311,0.908,0.785,0.908c0.475,0,0.786-0.281,0.786-0.877
				v-2.4h1.2v2.363c0,1.377-0.786,1.979-1.998,1.979C17.509,41.993,16.749,41.38,16.749,40.046z"/>
			<path fill="#FFFFFF" d="M21.461,41.282l0.657-0.785c0.42,0.334,0.889,0.51,1.382,0.51c0.317,0,0.487-0.109,0.487-0.293v-0.012
				c0-0.176-0.14-0.273-0.718-0.406c-0.908-0.209-1.607-0.465-1.607-1.342v-0.012c0-0.791,0.627-1.363,1.65-1.363
				c0.724,0,1.291,0.193,1.754,0.566l-0.591,0.834c-0.39-0.275-0.815-0.42-1.193-0.42c-0.286,0-0.427,0.121-0.427,0.273v0.012
				c0,0.195,0.146,0.281,0.737,0.414c0.981,0.215,1.59,0.529,1.59,1.328v0.012c0,0.873-0.689,1.389-1.724,1.389
				C22.703,41.987,21.984,41.749,21.461,41.282z"/>
			<path fill="#FFFFFF" d="M26.144,37.651h1.186v4.264h-1.186V37.651z"/>
			<path fill="#FFFFFF" d="M28.475,37.651h1.102l1.753,2.254v-2.254h1.17v4.264h-1.035l-1.821-2.34v2.34h-1.168V37.651z"/>
			<path fill="#FFFFFF" d="M33.621,37.651h3.428v1.004H34.79v0.646h2.045v0.932H34.79v0.676h2.289v1.006h-3.458V37.651z"/>
			<path fill="#FFFFFF" d="M37.724,41.282l0.658-0.785c0.42,0.334,0.888,0.51,1.38,0.51c0.317,0,0.488-0.109,0.488-0.293v-0.012
				c0-0.176-0.141-0.273-0.718-0.406c-0.906-0.209-1.607-0.465-1.607-1.342v-0.012c0-0.791,0.628-1.363,1.649-1.363
				c0.725,0,1.29,0.193,1.754,0.566l-0.592,0.834c-0.389-0.275-0.816-0.42-1.192-0.42c-0.287,0-0.428,0.121-0.428,0.273v0.012
				c0,0.195,0.147,0.281,0.737,0.414c0.98,0.215,1.59,0.529,1.59,1.328v0.012c0,0.873-0.688,1.389-1.725,1.389
				C38.966,41.987,38.249,41.749,37.724,41.282z"/>
			<path fill="#FFFFFF" d="M41.998,41.282l0.657-0.785c0.421,0.334,0.891,0.51,1.383,0.51c0.317,0,0.488-0.109,0.488-0.293v-0.012
				c0-0.176-0.141-0.273-0.72-0.406c-0.907-0.209-1.606-0.465-1.606-1.342v-0.012c0-0.791,0.626-1.363,1.648-1.363
				c0.725,0,1.292,0.193,1.754,0.566l-0.59,0.834c-0.391-0.275-0.815-0.42-1.193-0.42c-0.285,0-0.426,0.121-0.426,0.273v0.012
				c0,0.195,0.146,0.281,0.736,0.414c0.98,0.215,1.589,0.529,1.589,1.328v0.012c0,0.873-0.688,1.389-1.723,1.389
				C43.241,41.987,42.522,41.749,41.998,41.282z"/>
			<path fill="#FFFFFF" d="M14.493,46.636l0.657-0.785c0.42,0.336,0.889,0.514,1.383,0.514c0.317,0,0.487-0.111,0.487-0.293v-0.014
				c0-0.176-0.14-0.273-0.719-0.408c-0.907-0.207-1.608-0.461-1.608-1.338v-0.014c0-0.789,0.627-1.361,1.651-1.361
				c0.724,0,1.29,0.193,1.752,0.564l-0.591,0.834c-0.389-0.275-0.815-0.418-1.192-0.418c-0.287,0-0.426,0.119-0.426,0.271V44.2
				c0,0.197,0.146,0.279,0.737,0.414c0.979,0.213,1.589,0.531,1.589,1.328v0.012c0,0.871-0.688,1.391-1.723,1.391
				C15.735,47.345,15.016,47.106,14.493,46.636z"/>
			<path fill="#FFFFFF" d="M19.004,45.151V45.14c0-1.242,0.956-2.217,2.248-2.217c0.87,0,1.43,0.367,1.807,0.889l-0.889,0.686
				c-0.243-0.303-0.523-0.498-0.931-0.498c-0.597,0-1.017,0.506-1.017,1.127v0.014c0,0.639,0.42,1.139,1.017,1.139
				c0.444,0,0.706-0.207,0.961-0.52l0.889,0.635c-0.402,0.555-0.944,0.963-1.887,0.963C19.984,47.356,19.004,46.423,19.004,45.151z"
				/>
			<path fill="#FFFFFF" d="M23.96,43.009h1.182v1.594h1.517v-1.594h1.18v4.262h-1.18v-1.621h-1.517v1.621H23.96V43.009z"/>
			<path fill="#FFFFFF" d="M28.813,45.151V45.14c0-1.223,0.986-2.217,2.301-2.217c1.316,0,2.29,0.98,2.29,2.203v0.014
				c0,1.225-0.986,2.217-2.303,2.217C29.788,47.356,28.813,46.376,28.813,45.151z M32.198,45.151V45.14
				c0-0.617-0.443-1.152-1.097-1.152c-0.645,0-1.077,0.523-1.077,1.139v0.014c0,0.613,0.444,1.15,1.09,1.15
				C31.767,46.29,32.198,45.765,32.198,45.151z"/>
			<path fill="#FFFFFF" d="M34.238,45.151V45.14c0-1.223,0.986-2.217,2.303-2.217c1.314,0,2.289,0.98,2.289,2.203v0.014
				c0,1.225-0.987,2.217-2.301,2.217C35.212,47.356,34.238,46.376,34.238,45.151z M37.625,45.151V45.14
				c0-0.617-0.445-1.152-1.097-1.152c-0.647,0-1.078,0.523-1.078,1.139v0.014c0,0.613,0.443,1.15,1.09,1.15
				C37.192,46.29,37.625,45.765,37.625,45.151z"/>
			<path fill="#FFFFFF" d="M39.808,43.009h1.182v3.227h2.064v1.035h-3.246V43.009z"/>
		</g>
	</g>
</g>
</svg>
