<?xml version="1.0" encoding="utf-8"?>
<!-- Generator: Adobe Illustrator 26.5.0, SVG Export Plug-In . SVG Version: 6.00 Build 0)  -->
<svg version="1.1" id="Layer_1" xmlns="http://www.w3.org/2000/svg" xmlns:xlink="http://www.w3.org/1999/xlink" x="0px" y="0px"
	 viewBox="0 0 396 396.9" style="enable-background:new 0 0 396 396.9;" xml:space="preserve">
<style type="text/css">
	.st0{fill:#FFFFFF;}
	.st1{fill:#1E1E1C;}
</style>
<g>
	<polygon class="st0" points="56.3,71.8 127.1,71.8 198,238.9 268.9,71.8 339.7,71.8 233.4,322.4 162.6,322.4 	"/>
	<path class="st1" d="M263.6,133.1l3-7.1l10.3,4.4l-6.6-13.2l3.6-8.4l6.9,14.3l18.8-3.8l-3.6,8.5l-12.2,2.4l1.8,3.8l6.6,2.8l-3,7.1
		L263.6,133.1z"/>
	<path class="st1" d="M216,245.2l3-7.1l19.3,8.2l5.2-12.3l6.2,2.6l-8.2,19.4L216,245.2z"/>
	<path class="st1" d="M225.4,223.2l8.7-20.5l6,2.6l-5.7,13.5l3.9,1.6l5.2-12.2l5.6,2.4l-5.2,12.2l4,1.7l5.8-13.7l6,2.6l-8.8,20.7
		L225.4,223.2z"/>
	<path class="st1" d="M236,198.2l5.1-12c1.7-3.9,3.8-6.2,6.3-7.1c2.1-0.9,4.4-0.8,6.9,0.3l0.1,0c3.9,1.7,5.6,4.8,5.6,8.6l11.5-2.3
		l-3.5,8.2l-9.9,1.9l0,0.1l-1.3,3l7.7,3.3l-3,7.1L236,198.2z M253.2,191.7c1-2.4,0.4-4.3-1.4-5.1l-0.1,0c-2-0.9-3.6,0.2-4.6,2.5
		l-2,4.6l6.1,2.6L253.2,191.7z"/>
	<path class="st1" d="M247.3,171.6l3-7.1l25.5,10.8l-3,7.1L247.3,171.6z"/>
	<path class="st1" d="M264.7,166L264.7,166c-7.5-3.2-10.9-11.4-7.6-19.1c2.2-5.2,5.8-7.6,9.9-8.6l1.9,7.1c-2.4,0.7-4.3,1.9-5.4,4.3
		c-1.5,3.6,0.4,7.4,4.2,8.9l0.1,0c3.8,1.6,7.9,0.4,9.4-3.2c1.1-2.7,0.5-4.7-0.7-7.1l6-3.7c2.3,3.8,3.4,8.1,1,13.7
		C280.4,165.8,272.3,169.3,264.7,166z"/>
	<polygon class="st1" points="214.9,247.4 211.5,255.3 223.5,267.7 206.3,267.7 202.9,275.6 233,275.6 234.4,272.3 235.8,269 	"/>
</g>
</svg>
