<?xml version="1.0" encoding="utf-8"?>
<!-- Generator: Adobe Illustrator 26.5.0, SVG Export Plug-In . SVG Version: 6.00 Build 0)  -->
<svg version="1.1" id="Layer_1" xmlns="http://www.w3.org/2000/svg" xmlns:xlink="http://www.w3.org/1999/xlink" x="0px" y="0px"
	 viewBox="0 0 623.6 396.9" style="enable-background:new 0 0 623.6 396.9;" xml:space="preserve">
<style type="text/css">
	.st0{fill:#FFFFFF;}
	.st1{fill:#1E1E1C;}
	.st2{fill:none;}
</style>
<g>
	<polygon class="st0" points="63.3,71.8 134.2,71.8 205,238.9 275.9,71.8 346.8,71.8 240.5,322.4 169.6,322.4 	"/>
	<path class="st1" d="M270.6,133.1l3-7.1l10.3,4.4l-6.6-13.2l3.6-8.4l6.9,14.3l18.8-3.8l-3.6,8.5l-12.2,2.4l1.8,3.8l6.6,2.8l-3,7.1
		L270.6,133.1z"/>
	<path class="st1" d="M223,245.2l3-7.1l19.3,8.2l5.2-12.3l6.2,2.6l-8.2,19.4L223,245.2z"/>
	<path class="st1" d="M232.4,223.2l8.7-20.5l6,2.6l-5.7,13.5l3.9,1.6l5.2-12.2l5.6,2.4l-5.2,12.2l4,1.7l5.8-13.7l6,2.6l-8.8,20.7
		L232.4,223.2z"/>
	<path class="st1" d="M243,198.2l5.1-12c1.7-3.9,3.8-6.2,6.3-7.1c2.1-0.9,4.4-0.8,6.9,0.3l0.1,0c3.9,1.7,5.6,4.8,5.6,8.6l11.5-2.3
		l-3.5,8.2l-9.9,1.9l0,0.1l-1.3,3l7.7,3.3l-3,7.1L243,198.2z M260.2,191.7c1-2.4,0.4-4.3-1.4-5.1l-0.1,0c-2-0.9-3.6,0.2-4.6,2.5
		l-2,4.6l6.1,2.6L260.2,191.7z"/>
	<path class="st1" d="M254.3,171.6l3-7.1l25.5,10.8l-3,7.1L254.3,171.6z"/>
	<path class="st1" d="M271.8,166L271.8,166c-7.5-3.2-10.9-11.4-7.6-19.1c2.2-5.2,5.8-7.6,9.9-8.6l1.9,7.1c-2.4,0.7-4.3,1.9-5.4,4.3
		c-1.5,3.6,0.4,7.4,4.2,8.9l0.1,0c3.8,1.6,7.9,0.4,9.4-3.2c1.1-2.7,0.5-4.7-0.7-7.1l6-3.7c2.3,3.8,3.4,8.1,1,13.7
		C287.4,165.8,279.4,169.3,271.8,166z"/>
	<polygon class="st1" points="221.9,247.4 218.6,255.3 230.5,267.7 213.3,267.7 210,275.6 240,275.6 241.4,272.3 242.8,269 	"/>
	<rect x="2.1" y="16.4" class="st2" width="618.5" height="361.3"/>
</g>
<g>
	<path class="st0" d="M346.8,160.9H361c3.5,0,5.9,0.9,7.6,2.5c1.1,1.1,1.8,2.6,1.8,4.5v0.1c0,3.2-1.8,5.1-4.3,6.2
		c3.4,1.1,5.5,3,5.5,6.8v0.1c0,4.8-3.9,7.6-10.5,7.6h-14.3V160.9z M359.1,172c2.3,0,3.6-0.8,3.6-2.4v-0.1c0-1.5-1.2-2.4-3.5-2.4h-5
		v4.9H359.1z M360.2,182.5c2.3,0,3.7-0.9,3.7-2.5v-0.1c0-1.5-1.2-2.5-3.8-2.5h-5.9v5.1H360.2z"/>
	<path class="st0" d="M376.4,176.5v-15.6h7.8v15.4c0,4,2,5.9,5.1,5.9c3.1,0,5.1-1.8,5.1-5.7v-15.6h7.8v15.4c0,9-5.1,12.9-13,12.9
		C381.3,189.2,376.4,185.2,376.4,176.5z"/>
	<path class="st0" d="M406.2,184.5l4.3-5.1c2.7,2.2,5.8,3.3,9,3.3c2.1,0,3.2-0.7,3.2-1.9v-0.1c0-1.1-0.9-1.8-4.7-2.7
		c-5.9-1.3-10.5-3-10.5-8.7v-0.1c0-5.1,4.1-8.9,10.7-8.9c4.7,0,8.4,1.3,11.4,3.7l-3.8,5.4c-2.5-1.8-5.3-2.7-7.8-2.7
		c-1.9,0-2.8,0.8-2.8,1.8v0.1c0,1.3,1,1.8,4.8,2.7c6.4,1.4,10.3,3.4,10.3,8.6v0.1c0,5.7-4.5,9-11.2,9
		C414.3,189.1,409.7,187.6,406.2,184.5z"/>
	<path class="st0" d="M435.9,171.1v-10.1h7.7v27.7h-7.7V171.1z"/>
	<path class="st0" d="M450.3,160.9h7.2l11.4,14.7v-14.7h7.6v27.7h-6.7l-11.9-15.2v15.2h-7.6V160.9z"/>
	<path class="st0" d="M483,160.9h22.3v6.5h-14.7v4.2h13.3v6.1h-13.3v4.4h14.9v6.5H483L483,160.9L483,160.9z"/>
	<path class="st0" d="M508.9,184.5l4.3-5.1c2.7,2.2,5.8,3.3,9,3.3c2.1,0,3.2-0.7,3.2-1.9v-0.1c0-1.1-0.9-1.8-4.7-2.7
		c-5.9-1.3-10.5-3-10.5-8.7v-0.1c0-5.1,4.1-8.9,10.7-8.9c4.7,0,8.4,1.3,11.4,3.7l-3.8,5.4c-2.5-1.8-5.3-2.7-7.8-2.7
		c-1.9,0-2.8,0.8-2.8,1.8v0.1c0,1.3,1,1.8,4.8,2.7c6.4,1.4,10.3,3.4,10.3,8.6v0.1c0,5.7-4.5,9-11.2,9
		C517,189.1,512.3,187.6,508.9,184.5z"/>
	<path class="st0" d="M536,184.5l4.3-5.1c2.7,2.2,5.8,3.3,9,3.3c2.1,0,3.2-0.7,3.2-1.9v-0.1c0-1.1-0.9-1.8-4.7-2.7
		c-5.9-1.3-10.5-3-10.5-8.7v-0.1c0-5.1,4.1-8.9,10.7-8.9c4.7,0,8.4,1.3,11.4,3.7l-3.8,5.4c-2.5-1.8-5.3-2.7-7.8-2.7
		c-1.9,0-2.8,0.8-2.8,1.8v0.1c0,1.3,1,1.8,4.8,2.7c6.4,1.4,10.3,3.4,10.3,8.6v0.1c0,5.7-4.5,9-11.2,9
		C544.1,189.1,539.4,187.6,536,184.5z"/>
	<g>
		<path class="st0" d="M345,219.5l4.3-5.1c2.7,2.2,5.8,3.3,9,3.3c2.1,0,3.2-0.7,3.2-1.9v-0.1c0-1.1-0.9-1.8-4.7-2.7
			c-5.9-1.3-10.5-3-10.5-8.7v-0.1c0-5.1,4.1-8.9,10.7-8.9c4.7,0,8.4,1.3,11.4,3.7l-3.8,5.4c-2.5-1.8-5.3-2.7-7.8-2.7
			c-1.9,0-2.8,0.8-2.8,1.8v0.1c0,1.3,1,1.8,4.8,2.7c6.4,1.4,10.3,3.4,10.3,8.6v0.1c0,5.7-4.5,9-11.2,9
			C353,224.1,348.4,222.5,345,219.5z"/>
		<path class="st0" d="M373.5,209.8L373.5,209.8c0-8.2,6.2-14.5,14.6-14.5c5.7,0,9.3,2.4,11.8,5.8l-5.8,4.5c-1.6-2-3.4-3.2-6.1-3.2
			c-3.9,0-6.6,3.3-6.6,7.3v0.1c0,4.2,2.7,7.4,6.6,7.4c2.9,0,4.6-1.3,6.3-3.4l5.8,4.1c-2.6,3.6-6.1,6.3-12.3,6.3
			C379.9,224.1,373.5,218.1,373.5,209.8z"/>
		<path class="st0" d="M405,195.8h7.7v10.4h9.9v-10.4h7.7v27.7h-7.7V213h-9.9v10.5H405V195.8z"/>
		<path class="st0" d="M435.8,209.8L435.8,209.8c0-8,6.4-14.5,15-14.5c8.6,0,14.9,6.4,14.9,14.3v0.1c0,8-6.4,14.4-15,14.4
			C442.1,224.1,435.8,217.8,435.8,209.8z M457.8,209.8L457.8,209.8c0-4.1-2.9-7.6-7.1-7.6c-4.2,0-7,3.4-7,7.4v0.1
			c0,4,2.9,7.5,7.1,7.5C455,217.2,457.8,213.8,457.8,209.8z"/>
		<path class="st0" d="M470.3,209.8L470.3,209.8c0-8,6.4-14.5,15-14.5s14.9,6.4,14.9,14.3v0.1c0,8-6.4,14.4-15,14.4
			C476.7,224.1,470.3,217.8,470.3,209.8z M492.4,209.8L492.4,209.8c0-4.1-2.9-7.6-7.1-7.6c-4.2,0-7,3.4-7,7.4v0.1
			c0,4,2.9,7.5,7.1,7.5C489.5,217.2,492.4,213.8,492.4,209.8z"/>
		<path class="st0" d="M505.8,195.8h7.7v21h13.4v6.7h-21.1V195.8z"/>
	</g>
</g>
</svg>
